# xmcd
#
# Track frame offsets:
#	150
#	14611
#	29262
#	44076
#	57069
#	72302
#	87423
#	100108
#	116629
#	131490
#	147040
#	161598
#
# Disc length: 2343 seconds
# Revision: 0
# Processed by: cddbd v1.5.2PL0 Copyright (c) Steve Scherf et al.
# Submitted via: dBpowerAMP V12.0
#
DISCID=a409250c
DTITLE=Various Artist - Gonna Sing, Gonna Shout
DYEAR=2018
DGENRE=Bluegrass Gospel
TTITLE0=Dave Adkins - Thinkin' Outside the Box
TTITLE1=HighRoad - Heaven's Back Yard
TTITLE2=Marty Raybon - I See God
TTITLE3=The Whites - Don't Tune Him Out
TTITLE4=Jerry Salley - The Back of the Church
TTITLE5=Claire Lynch - Gonna Sing, Gonna Shout
TTITLE6=Bradley Walker - Henry Clayton Parker
TTITLE7=The Cox Family - There Will Be Singing
TTITLE8=Marty Raybon - I've Read the Book
TTITLE9=Kenny and Amanda Smith - They Were Fishermen
TTITLE10=Larry Cordle - Sunday Morning Gospel Jubilee
TTITLE11=Dave Adkins - There is a Light
EXTD=
EXTT0=
EXTT1=
EXTT2=
EXTT3=
EXTT4=
EXTT5=
EXTT6=
EXTT7=
EXTT8=
EXTT9=
EXTT10=
EXTT11=
PLAYORDER=
